<svg width="39" height="52" viewBox="0 0 39 52" fill="none" xmlns="http://www.w3.org/2000/svg">
<g clip-path="url(#clip0_2_149)">
<path d="M19.5 0C8.74453 0 0 8.74453 0 19.5C0 33.018 17.6008 50.7711 18.3523 51.5227C18.6672 51.8375 19.0836 52 19.5 52C19.9164 52 20.3328 51.8375 20.6477 51.5227C21.3992 50.7711 39 33.018 39 19.5C39 8.74453 30.2555 0 19.5 0Z" fill="#FF3600"/>
<path d="M28.6407 16.6054L20.5157 10.1054C19.9164 9.62801 19.0836 9.62801 18.4844 10.1054L10.3594 16.6054C9.82113 17.0421 9.60785 17.7632 9.84144 18.4132C10.075 19.0632 10.6844 19.4999 11.375 19.4999H13V27.6249C13 28.5186 13.7313 29.2499 14.625 29.2499H24.375C25.2688 29.2499 26 28.5186 26 27.6249V19.4999H27.625C28.3157 19.4999 28.925 19.0632 29.1586 18.4132C29.3922 17.7632 29.1789 17.0319 28.6407 16.6054Z" fill="white"/>
</g>
<defs>
<clipPath id="clip0_2_149">
<rect width="39" height="52" fill="white"/>
</clipPath>
</defs>
</svg>
